<?xml version="1.0" encoding="UTF-8" ?>
<!DOCTYPE svg PUBLIC "-//W3C//DTD SVG 1.1//EN" "http://www.w3.org/Graphics/SVG/1.1/DTD/svg11.dtd">
<svg viewBox="0 0 88 88" version="1.1" xmlns="http://www.w3.org/2000/svg">
<g id="#3369f3ff">
<path d=" M 40.85 0.00 L 46.42 0.00 C 57.34 0.72 68.03 5.43 75.57 13.42 C 82.88 20.67 87.10 30.65 88.00 40.85 L 88.00 46.43 C 87.28 57.35 82.56 68.05 74.56 75.59 C 67.31 82.89 57.34 87.10 47.15 88.00 L 41.60 88.00 C 30.65 87.29 19.94 82.55 12.39 74.53 C 5.10 67.28 0.89 57.32 0.00 47.14 L 0.00 41.59 C 0.72 30.65 5.44 19.95 13.45 12.40 C 20.69 5.10 30.67 0.90 40.85 0.00 M 36.52 6.74 C 24.62 8.99 14.20 17.49 9.28 28.51 C 5.37 37.13 4.98 47.22 7.98 56.18 C 11.46 66.53 19.64 75.15 29.75 79.26 C 38.26 82.71 48.03 82.89 56.69 79.85 C 67.51 76.03 76.34 67.05 80.04 56.19 C 85.67 40.25 79.07 21.30 64.86 12.22 C 56.62 6.74 46.20 4.77 36.52 6.74 Z" />
<path d=" M 41.00 22.00 C 43.00 22.00 45.00 22.00 47.00 22.00 C 47.00 28.33 47.00 34.67 47.00 41.00 C 53.33 41.00 59.67 41.00 66.00 41.00 C 66.00 43.00 66.00 45.00 66.00 47.00 C 59.67 47.00 53.33 47.00 47.00 47.00 C 47.00 53.33 47.00 59.67 47.00 66.00 C 45.00 66.00 43.00 66.00 41.00 66.00 C 41.00 59.67 41.00 53.33 41.00 47.00 C 34.67 46.99 28.33 47.00 22.00 47.00 C 22.00 45.00 22.00 43.00 22.00 41.00 C 28.33 41.00 34.67 41.00 41.00 41.00 C 41.00 34.67 41.00 28.33 41.00 22.00 Z" />
</g>
</svg>
