<?xml version="1.0" encoding="UTF-8" ?>
<!DOCTYPE svg PUBLIC "-//W3C//DTD SVG 1.1//EN" "http://www.w3.org/Graphics/SVG/1.1/DTD/svg11.dtd">
<svg viewBox="0 0 88 88" version="1.1" xmlns="http://www.w3.org/2000/svg">
<g id="#3369f3ff">
<path d=" M 40.47 0.00 L 46.76 0.00 C 57.57 0.84 68.14 5.52 75.60 13.45 C 82.82 20.61 86.96 30.43 88.00 40.48 L 88.00 46.76 C 87.16 57.57 82.48 68.13 74.55 75.60 C 67.39 82.82 57.57 86.96 47.52 88.00 L 41.26 88.00 C 30.44 87.17 19.86 82.48 12.39 74.54 C 5.18 67.39 1.04 57.57 0.00 47.53 L 0.00 41.24 C 0.84 30.45 5.50 19.90 13.41 12.44 C 20.57 5.19 30.41 1.04 40.47 0.00 M 36.55 6.73 C 25.94 8.74 16.49 15.70 11.09 25.00 C 6.13 33.38 4.77 43.72 7.11 53.14 C 9.41 62.83 15.89 71.35 24.35 76.53 C 32.57 81.60 42.78 83.20 52.19 81.11 C 62.27 79.01 71.19 72.38 76.54 63.63 C 81.77 55.15 83.30 44.55 80.90 34.90 C 78.61 25.18 72.10 16.63 63.62 11.45 C 55.62 6.52 45.74 4.89 36.55 6.73 Z" />
<path d=" M 26.44 30.57 C 27.81 29.19 29.19 27.81 30.57 26.44 C 35.05 30.91 39.52 35.39 44.00 39.86 C 48.49 35.40 52.95 30.91 57.43 26.44 C 58.81 27.81 60.19 29.18 61.56 30.57 C 57.09 35.05 52.60 39.51 48.14 44.00 C 52.60 48.48 57.09 52.95 61.56 57.43 C 60.19 58.81 58.81 60.19 57.43 61.56 C 52.95 57.09 48.48 52.60 44.00 48.14 C 39.51 52.60 35.05 57.09 30.57 61.56 C 29.19 60.19 27.81 58.81 26.44 57.43 C 30.91 52.95 35.40 48.49 39.86 44.00 C 35.39 39.51 30.91 35.05 26.44 30.57 Z" />
</g>
</svg>
